HIERARCHY
ROOT Hips
{
	OFFSET -0.001795 -0.223333 0.028219
	CHANNELS 6 Xposition Yposition Zposition Zrotation Yrotation Xrotation 
	JOINT LeftUpLeg
	{
		OFFSET 0.069520 -0.091406 -0.006815
		CHANNELS 3 Zrotation Yrotation Xrotation
		JOINT LeftLeg
		{
			OFFSET 0.034277 -0.375199 -0.004496
			CHANNELS 3 Zrotation Yrotation Xrotation
			JOINT LeftFoot
			{
				OFFSET -0.013596 -0.397961 -0.043693
				CHANNELS 3 Zrotation Yrotation Xrotation
				JOINT LeftToe
				{
					OFFSET 0.026358 -0.055791 0.119288
					CHANNELS 3 Zrotation Yrotation Xrotation
					End Site
					{
						OFFSET 0.000000 0.000000 0.000000
					}
				}
			}
		}
	}
	JOINT RightUpLeg
	{
		OFFSET -0.067670 -0.090522 -0.004320
		CHANNELS 3 Zrotation Yrotation Xrotation
		JOINT RightLeg
		{
			OFFSET -0.038290 -0.382569 -0.008850
			CHANNELS 3 Zrotation Yrotation Xrotation
			JOINT RightFoot
			{
				OFFSET 0.015774 -0.398415 -0.042312
				CHANNELS 3 Zrotation Yrotation Xrotation
				JOINT RightToe
				{
					OFFSET -0.025372 -0.048144 0.123348
					CHANNELS 3 Zrotation Yrotation Xrotation
					End Site
					{
						OFFSET 0.000000 0.000000 0.000000
					}
				}
			}
		}
	}
	JOINT Spine
	{
		OFFSET -0.002533 0.108963 -0.026696
		CHANNELS 3 Zrotation Yrotation Xrotation
		JOINT Spine1
		{
			OFFSET 0.005487 0.135180 0.001092
			CHANNELS 3 Zrotation Yrotation Xrotation
			JOINT Spine2
			{
				OFFSET 0.001457 0.052922 0.025425
				CHANNELS 3 Zrotation Yrotation Xrotation
				JOINT Neck
				{
					OFFSET -0.002778 0.213870 -0.042857
					CHANNELS 3 Zrotation Yrotation Xrotation
					JOINT Head
					{
						OFFSET 0.005152 0.064970 0.051349
						CHANNELS 3 Zrotation Yrotation Xrotation
						End Site
						{
							OFFSET 0.000000 0.000000 0.000000
						}
					}
				}
				JOINT LeftShoulder
				{
					OFFSET 0.078845 0.121749 -0.034090
					CHANNELS 3 Zrotation Yrotation Xrotation
					JOINT LeftArm
					{
						OFFSET 0.090977 0.030469 -0.008868
						CHANNELS 3 Zrotation Yrotation Xrotation
						JOINT LeftForeArm
						{
							OFFSET 0.259612 -0.012772 -0.027456
							CHANNELS 3 Zrotation Yrotation Xrotation
							JOINT LeftHand
							{
								OFFSET 0.249234 0.008986 -0.001171
								CHANNELS 3 Zrotation Yrotation Xrotation
								End Site
								{
									OFFSET 0.000000 0.000000 0.000000
								}
							}
						}
					}
				}
				JOINT RightShoulder
				{
					OFFSET -0.081759 0.118833 -0.038615
					CHANNELS 3 Zrotation Yrotation Xrotation
					JOINT RightArm
					{
						OFFSET -0.096012 0.032551 -0.009143
						CHANNELS 3 Zrotation Yrotation Xrotation
						JOINT RightForeArm
						{
							OFFSET -0.253742 -0.013329 -0.021401
							CHANNELS 3 Zrotation Yrotation Xrotation
							JOINT RightHand
							{
								OFFSET -0.255298 0.007772 -0.005559
								CHANNELS 3 Zrotation Yrotation Xrotation
								End Site
								{
									OFFSET 0.000000 0.000000 0.000000
								}
							}
						}
					}
				}
			}
		}
	}
}
MOTION
Frames: 10
Frame Time: 0.050000
0.000000 0.944159 0.000000 -5.589525 -12.807654 12.551985 6.692122 -0.153052 -23.247904 -2.670847 0.496957 10.866789 5.542310 11.937516 7.601259 0.000000 0.000000 0.000000 0.353432 1.846162 -16.240677 3.366634 0.018624 9.530631 -4.931741 -14.498190 6.890325 0.000000 0.000000 0.000000 -5.334732 2.003381 34.782011 -9.090697 2.536588 -22.230719 -4.845396 1.104240 27.075918 5.208901 -1.926263 -27.923639 0.000000 0.000000 0.000000 -13.582278 -23.007859 11.934584 -26.844772 -35.938768 1.986420 60.660961 -31.647369 -14.821341 0.000000 0.000000 0.000000 26.372593 7.112374 0.905249 60.245845 9.597153 -3.127762 7.596135 56.390467 6.674636 0.000000 0.000000 0.000000 
0.000454 0.945063 0.001876 -5.534206 -13.162396 12.703257 6.316830 -0.208177 -23.309552 -2.699696 0.505672 10.641466 5.992033 12.722711 7.771752 0.000000 0.000000 0.000000 0.462958 1.732315 -15.353323 3.156135 -0.031847 7.208814 -4.767957 -14.397116 7.698687 0.000000 0.000000 0.000000 -6.536870 2.490578 34.524441 -8.012668 2.310204 -21.248135 -4.744741 0.849932 26.894901 4.778563 -1.520046 -29.901869 0.000000 0.000000 0.000000 -13.638241 -22.934882 12.050007 -26.708590 -36.004520 1.942889 64.588348 -31.354229 -15.658035 0.000000 0.000000 0.000000 26.393849 5.994187 -0.014033 59.139699 9.850691 -2.871100 11.365969 56.389007 8.494895 0.000000 0.000000 0.000000 
0.000940 0.944322 0.003476 -5.208619 -11.473120 12.305685 5.975571 -0.377862 -24.069341 -2.551249 0.464895 12.210843 5.394428 11.812317 7.796432 0.000000 0.000000 0.000000 0.313586 1.694487 -15.272553 3.305158 -0.068162 7.487724 -5.393324 -15.736289 8.732281 0.000000 0.000000 0.000000 -4.958621 1.685811 34.698494 -8.315467 2.434259 -20.618234 -5.562647 0.813723 26.095927 5.084445 -1.941156 -26.220745 0.000000 0.000000 0.000000 -15.781773 -24.465143 13.193725 -22.834547 -36.129985 1.183998 62.338385 -32.097977 -15.856168 0.000000 0.000000 0.000000 28.072395 5.913392 0.101821 57.050030 9.948299 -2.702535 13.275035 55.031268 9.353402 0.000000 0.000000 0.000000 
0.001107 0.945960 0.004840 -4.893430 -12.149299 12.192571 5.553440 -0.426155 -24.130974 -2.256818 0.420998 12.616837 5.087033 11.243586 8.278383 0.000000 0.000000 0.000000 0.003743 1.602331 -14.686407 3.507414 -0.123541 6.180629 -6.453935 -17.808103 9.251805 0.000000 0.000000 0.000000 -5.358298 1.999175 35.534580 -8.954860 2.600242 -20.534296 -5.989008 0.552245 26.343851 5.930749 -2.482333 -26.296598 0.000000 0.000000 0.000000 -14.782969 -25.364846 13.445247 -22.559198 -36.811766 1.311597 63.912100 -30.073993 -15.168259 0.000000 0.000000 0.000000 29.536162 6.100206 -0.101141 54.933356 10.582155 -2.307999 13.395543 55.373486 9.375802 0.000000 0.000000 0.000000 
0.001259 0.945704 0.005965 -4.590021 -12.246020 12.172529 5.142428 -0.505146 -24.428595 -2.087908 0.388800 12.945406 5.351006 11.724048 8.741681 0.000000 0.000000 0.000000 -0.305351 1.586664 -14.702807 3.220230 -0.083960 6.307064 -6.407435 -17.720529 9.192435 0.000000 0.000000 0.000000 -5.099473 1.931082 35.717867 -8.747966 2.569641 -20.064694 -6.751746 0.514432 25.786351 5.739219 -2.347308 -26.319946 0.000000 0.000000 0.000000 -14.212580 -25.611665 13.393787 -22.628538 -38.414745 1.662935 63.301225 -29.012187 -14.331806 0.000000 0.000000 0.000000 29.571139 6.200313 -0.057995 55.064253 11.118451 -2.014940 13.958560 54.635750 9.496363 0.000000 0.000000 0.000000 
0.001321 0.945673 0.006545 -4.392524 -12.039477 12.279565 4.811268 -0.592264 -24.744649 -2.148497 0.391021 12.755478 5.251571 11.593317 9.011532 0.000000 0.000000 0.000000 -0.574607 1.548850 -14.549000 3.425813 -0.120501 6.026840 -6.641886 -18.078807 8.945365 0.000000 0.000000 0.000000 -4.961353 1.920263 36.442378 -8.962146 2.578796 -21.139804 -6.657863 0.155270 26.548277 5.453503 -2.243580 -26.391509 0.000000 0.000000 0.000000 -13.480832 -26.305176 13.607789 -23.515917 -39.255419 2.012914 64.349380 -28.948239 -14.466262 0.000000 0.000000 0.000000 29.479190 6.065135 -0.238288 54.887211 11.832935 -1.743138 14.411836 52.750857 9.306261 0.000000 0.000000 0.000000 
0.001407 0.945720 0.006567 -4.239061 -11.959454 12.630151 4.903362 -0.575660 -25.270833 -2.354253 0.437382 12.702621 5.537656 12.128384 9.679377 0.000000 0.000000 0.000000 -0.823986 1.566971 -14.814927 3.535800 -0.142963 5.692946 -6.669849 -18.129839 8.892726 0.000000 0.000000 0.000000 -4.498443 1.743948 36.534435 -9.085706 2.622818 -20.873632 -6.990051 -0.044871 26.294804 5.561267 -2.249605 -26.905892 0.000000 0.000000 0.000000 -13.471322 -26.103349 13.553750 -24.418721 -40.609034 2.494779 65.368952 -29.631786 -15.011780 0.000000 0.000000 0.000000 29.230320 6.216496 -0.188331 55.260956 12.489418 -1.408647 14.093651 51.691411 8.903674 0.000000 0.000000 0.000000 
0.001402 0.945805 0.006134 -4.169563 -11.678684 12.900706 4.606165 -0.659093 -25.641981 -2.113788 0.362176 12.426418 5.595986 12.273230 9.976212 0.000000 0.000000 0.000000 -0.967370 1.586849 -15.067411 3.707940 -0.168883 5.599340 -6.928273 -18.621153 9.055064 0.000000 0.000000 0.000000 -4.210628 1.612919 36.730741 -8.718266 2.533126 -20.779765 -7.101542 0.247421 25.880779 5.889152 -2.373339 -26.610616 0.000000 0.000000 0.000000 -14.580911 -26.690310 14.094044 -24.475635 -40.977096 2.558378 67.018106 -30.744001 -16.242760 0.000000 0.000000 0.000000 29.103627 6.236685 0.032659 55.045294 13.166945 -1.112191 13.378452 50.062110 8.307785 0.000000 0.000000 0.000000 
0.001283 0.946219 0.005469 -3.878545 -11.240895 13.032450 4.400258 -0.738326 -25.610581 -2.173741 0.349398 11.732400 5.541723 12.233158 10.108111 0.000000 0.000000 0.000000 -1.216422 1.600264 -15.345187 3.925990 -0.198524 5.697049 -7.128705 -18.979027 9.103180 0.000000 0.000000 0.000000 -3.897342 1.446328 36.914007 -8.777992 2.549268 -20.874684 -7.060850 0.357538 26.087752 6.084493 -2.467985 -26.305898 0.000000 0.000000 0.000000 -15.694455 -26.593510 14.322768 -24.797602 -41.673420 2.700054 68.879293 -31.703185 -17.409012 0.000000 0.000000 0.000000 28.429453 6.080715 0.136693 55.355421 13.352115 -1.110881 13.221948 48.726686 8.035638 0.000000 0.000000 0.000000 
0.000906 0.946699 0.004819 -3.790627 -10.854680 13.242608 4.329258 -0.782846 -25.768223 -1.910423 0.269398 11.257826 5.516231 12.243150 10.316112 0.000000 0.000000 0.000000 -1.324596 1.615608 -15.571050 4.059273 -0.219217 5.728189 -7.346688 -19.359054 9.069022 0.000000 0.000000 0.000000 -3.798656 1.362973 36.990831 -8.553940 2.510048 -20.534751 -6.988098 0.878504 25.973767 6.346179 -2.548732 -25.845205 0.000000 0.000000 0.000000 -16.346265 -26.604947 14.350315 -25.469118 -42.048881 2.931380 71.804143 -32.822828 -19.204263 0.000000 0.000000 0.000000 27.693635 6.039101 0.489390 55.660897 14.155301 -0.830378 12.002199 47.385775 7.370224 0.000000 0.000000 0.000000 
